<?xml version="1.0" encoding="utf-8"?>
<!-- Generator: Adobe Illustrator 27.4.1, SVG Export Plug-In . SVG Version: 6.00 Build 0)  -->
<svg version="1.1" id="Layer_1" xmlns="http://www.w3.org/2000/svg" xmlns:xlink="http://www.w3.org/1999/xlink" x="0px" y="0px"
	 viewBox="0 0 59.5 59.3" style="enable-background:new 0 0 59.5 59.3;" xml:space="preserve">
<style type="text/css">
	.st0{fill:#FFCF01;}
	.st1{fill:#D20F8C;}
</style>
<polygon class="st0" points="42.6,52.1 16.6,52.3 3.5,29.8 16.3,7.2 42.3,7.1 55.5,29.5 "/>
<g>
	<path class="st1" d="M51.7,32.8l-16.3-0.1c-0.5,0-0.6,0.2-0.3,0.7l8.5,14.7c0.1,0.2,0.1,0.4,0.1,0.7c0,0.5-0.2,0.9-0.7,1.2
		l-3.2,1.6c-0.2,0.1-0.4,0.1-0.7,0.1c-0.5,0-0.9-0.2-1.2-0.7l-8.1-14.7c-0.1-0.2-0.3-0.2-0.4-0.3c-0.1,0-0.3,0.1-0.4,0.2l-8.1,14.7
		c-0.2,0.3-0.4,0.6-0.7,0.7c-0.3,0.1-0.7,0-1.1-0.1L16,49.9c-0.3-0.2-0.6-0.4-0.7-0.7c-0.1-0.4-0.1-0.8,0.1-1.2L24,33.3
		c0.1-0.4,0-0.6-0.4-0.7L7.3,32.9c-0.9,0-1.4-0.5-1.4-1.3L5.8,28c0-0.9,0.5-1.4,1.3-1.4l16.3,0.1c0.5,0,0.6-0.2,0.3-0.7l-8.5-14.6
		c-0.1-0.2-0.1-0.4-0.1-0.7c0-0.5,0.2-0.9,0.7-1.2L19,7.9c0.2-0.1,0.4-0.1,0.7-0.1c0.5,0,0.9,0.2,1.2,0.7l8.2,14.8
		c0.1,0.1,0.2,0.1,0.4,0.1c0.1,0,0.3-0.1,0.4-0.1L38,8.4c0.2-0.3,0.4-0.6,0.7-0.7s0.7,0,1.1,0.1l3.1,1.6c0.3,0.2,0.6,0.4,0.7,0.7
		c0.1,0.3,0,0.7-0.1,1.1L35.1,26c-0.3,0.4-0.1,0.7,0.4,0.7l16.2-0.2c0.9,0,1.4,0.5,1.4,1.3l0.1,3.6C53.1,32.4,52.6,32.8,51.7,32.8z"
		/>
</g>
</svg>
