<?xml version="1.0" encoding="utf-8"?>
<!-- Generator: Adobe Illustrator 27.4.0, SVG Export Plug-In . SVG Version: 6.00 Build 0)  -->
<svg version="1.1" id="Layer_1" xmlns="http://www.w3.org/2000/svg" xmlns:xlink="http://www.w3.org/1999/xlink" x="0px" y="0px"
	 viewBox="0 0 59.51 59.32" style="enable-background:new 0 0 59.51 59.32;" xml:space="preserve">
<style type="text/css">
	.st0{fill:#D20F8C;stroke:#D20F8C;stroke-width:2.2;stroke-miterlimit:10;}
</style>
<g>
	<path class="st0" d="M26.93,49.76l0.12-14.68c0-0.48-0.2-0.6-0.6-0.36l-13.36,7.7c-0.16,0.08-0.36,0.12-0.6,0.12
		c-0.48,0-0.84-0.2-1.08-0.6l-1.44-2.89c-0.08-0.16-0.12-0.36-0.12-0.6c0-0.48,0.2-0.84,0.6-1.08l13.24-7.34
		c0.16-0.08,0.24-0.2,0.24-0.36s-0.08-0.28-0.24-0.36l-13.24-7.34c-0.32-0.16-0.52-0.4-0.6-0.72s-0.04-0.64,0.12-0.96l1.44-2.89
		c0.16-0.32,0.4-0.52,0.72-0.6c0.32-0.08,0.64-0.04,0.96,0.12l13.36,7.7c0.4,0.16,0.6,0.04,0.6-0.36l-0.12-14.7
		c0-0.8,0.4-1.2,1.2-1.2h3.25c0.8,0,1.2,0.4,1.2,1.2l-0.12,14.68c0,0.4,0.2,0.52,0.6,0.36l13.36-7.7c0.16-0.08,0.36-0.12,0.6-0.12
		c0.48,0,0.84,0.2,1.08,0.6l1.44,2.89c0.08,0.16,0.12,0.36,0.12,0.6c0,0.48-0.2,0.84-0.6,1.08L35.71,29.3
		c-0.08,0.08-0.12,0.2-0.12,0.36s0.04,0.28,0.12,0.36l13.36,7.34c0.32,0.16,0.52,0.4,0.6,0.72c0.08,0.32,0.04,0.64-0.12,0.96
		l-1.44,2.89c-0.16,0.32-0.4,0.52-0.72,0.6c-0.32,0.08-0.64,0.04-0.96-0.12l-13.36-7.7c-0.4-0.24-0.6-0.12-0.6,0.36l0.12,14.68
		c0,0.8-0.4,1.2-1.2,1.2h-3.25C27.33,50.96,26.93,50.56,26.93,49.76z"/>
</g>
</svg>
