<?xml version="1.0" encoding="utf-8"?>
<!-- Generator: Adobe Illustrator 27.4.1, SVG Export Plug-In . SVG Version: 6.00 Build 0)  -->
<svg version="1.1" id="Layer_1" xmlns="http://www.w3.org/2000/svg" xmlns:xlink="http://www.w3.org/1999/xlink" x="0px" y="0px"
	 viewBox="0 0 115.2 94.9" style="enable-background:new 0 0 115.2 94.9;" xml:space="preserve">
<style type="text/css">
	.st0{fill:#FFFFFF;}
</style>
<g>
	<g>
		<path d="M12.8,11.7H6.1v6.4H3V2.3h3.1v6.6h6.7V2.3h3.1v15.8h-3.1C12.8,18.1,12.8,11.7,12.8,11.7z"/>
		<path d="M33.7,12.2V2.3h3.1V12c0,2.5,1,4,3.3,4c2,0,3.3-1.1,3.3-4V2.3h3.1v9.9c0,4.1-2.1,6.4-6.4,6.4
			C36.3,18.5,33.7,16.8,33.7,12.2z"/>
		<path d="M49.1,17v-2.8c2.2,1.2,3.8,1.7,5.4,1.7c2.2,0,3-0.9,3-2.1c0-1.1-0.9-1.7-2.5-2.3c-1.2-0.5-2.1-0.8-2.9-1.2
			c-1.8-1-2.9-2.2-2.9-4.2c0-2.4,1.9-4.2,5.5-4.2c1.5,0,3,0.3,4.6,1.3V6c-1.6-1-2.7-1.6-4.4-1.6c-1.8,0-2.6,0.7-2.6,1.7
			c0,1.1,0.9,1.8,2.3,2.4c0.7,0.3,1.4,0.6,2.2,0.9c2.3,0.9,3.6,1.9,3.6,4.2c0,2.8-1.7,4.8-6,4.8C52.6,18.5,50.7,18.1,49.1,17z"/>
		<path d="M63,2.3h3.1v15.8H63V2.3z"/>
		<path d="M69.6,2.3H73c2,3.2,4.5,7.3,7,11.7h0.1c-0.1-3-0.2-6.4-0.2-11.7H83v15.8h-3.4c-1.5-2.4-4.2-7-7-11.7h-0.1
			c0.1,2.7,0.2,6.1,0.2,11.7h-3.1V2.3z"/>
		<path d="M85.7,10.2c0-5.2,2.6-8.3,7.4-8.3c2.1,0,4.1,0.6,5.2,1.5v2.9c-1.4-0.9-2.9-1.6-4.9-1.6c-2.7,0-4.6,1.4-4.6,5.5
			c0,3.7,1.6,5.9,4.8,5.9c1.1,0,2-0.3,2.4-0.9v-4.9h3v6.2c-1,1.1-3.1,2.1-5.8,2.1C88.7,18.5,85.7,15.8,85.7,10.2z"/>
	</g>
	<g>
		<path d="M20.2,35.9v-2.8c0.4,0.1,1.3,0.7,2.5,0.7c2,0,2-1.6,2-4.6v-9h3.1v10.7c0,2.5-0.1,5.5-4.6,5.5C22,36.4,20.9,36.1,20.2,35.9
			z"/>
		<path d="M31.1,30.1v-9.9h3.1v9.7c0,2.5,1,4,3.3,4c2,0,3.3-1.1,3.3-4v-9.7h3.1v9.9c0,4.2-2.1,6.4-6.4,6.4
			C33.6,36.4,31.1,34.7,31.1,30.1z"/>
		<path d="M46.4,34.9v-2.8c2.2,1.2,3.8,1.7,5.4,1.7c2.2,0,3-0.9,3-2.1c0-1.1-0.9-1.7-2.5-2.3c-1.2-0.5-2.1-0.8-2.9-1.2
			c-1.8-1-2.9-2.2-2.9-4.1c0-2.4,1.9-4.2,5.5-4.2c1.5,0,3,0.3,4.6,1.2v2.8c-1.6-1-2.7-1.6-4.4-1.6c-1.8,0-2.6,0.7-2.6,1.7
			c0,1.1,0.9,1.8,2.3,2.4c0.7,0.3,1.4,0.5,2.2,0.9c2.3,0.9,3.6,1.9,3.6,4.2c0,2.8-1.7,4.9-6,4.9C50,36.4,48,36,46.4,34.9z"/>
		<path d="M63.4,23.1h-4.8v-2.9h12.6v2.9h-4.7V36h-3.1C63.4,36.1,63.4,23.1,63.4,23.1z"/>
		<path d="M73.4,20.2h3.1V36h-3.1V20.2z"/>
		<path d="M79.3,28.1c0-5,2.1-8.3,7.2-8.3c1.8,0,3.7,0.4,5.3,1.5v2.9c-1.6-1-3.2-1.6-4.9-1.6c-2.6,0-4.4,1.5-4.4,5.5
			c0,3.4,1.3,5.6,4.6,5.6c1.5,0,3.2-0.4,4.9-1.6v2.8c-1.2,0.9-3.1,1.6-5.5,1.6C82.3,36.4,79.3,34.1,79.3,28.1z"/>
		<path d="M94.6,20.2h10.5v2.6h-7.4v3.9h7v2.5h-7v4.2h7.5V36H94.6V20.2z"/>
	</g>
	<g>
		<path d="M43.4,38.6h6.7c3.3,0,5.5,1.4,5.5,4.9c0,2.3-1,4.1-3.6,4.5l3.8,6.4h-3.4l-3.7-6.2h-2.3v6.2h-3.1L43.4,38.6L43.4,38.6z
			 M49.3,46.2c2,0,3.3-0.7,3.3-2.5c0-1.5-0.8-2.5-2.8-2.5h-3.4v5H49.3z"/>
		<path d="M62.2,38.6h4.3l5.4,15.8h-3.1l-1.2-3.9h-6.4L60,54.4h-3.1L62.2,38.6z M66.8,48l-0.9-2.7c-0.5-1.4-0.9-2.7-1.4-4.1h-0.2
			c-0.5,1.6-0.9,2.7-1.4,4.3c-0.3,0.8-0.5,1.6-0.8,2.5H66.8L66.8,48z"/>
		<path d="M73.9,38.6H77v12.9h7.3v2.9H73.9V38.6z"/>
	</g>
	<g>
		<path d="M20.5,66.3h-6.7v6.4h-3.1V56.9h3.1v6.6h6.6v-6.6h3.1v15.8h-3.1L20.5,66.3L20.5,66.3z"/>
		<path d="M27.1,56.9h3.1v15.8h-3.1V56.9z"/>
		<path d="M33,71.6v-2.8c2.2,1.2,3.8,1.7,5.4,1.7c2.2,0,3-0.9,3-2.1c0-1.1-0.9-1.7-2.5-2.3c-1.2-0.5-2.1-0.8-2.9-1.2
			c-1.8-1-2.9-2.2-2.9-4.2c0-2.4,1.9-4.2,5.5-4.2c1.5,0,3,0.3,4.6,1.2v2.8c-1.6-1-2.7-1.6-4.4-1.6c-1.8,0-2.6,0.7-2.6,1.7
			c0,1.1,0.9,1.8,2.3,2.4c0.7,0.3,1.4,0.6,2.2,0.9c2.3,0.9,3.6,1.9,3.6,4.2c0,2.8-1.7,4.8-6,4.8C36.5,73.1,34.6,72.7,33,71.6z"/>
		<path d="M49.9,59.8h-4.8v-2.9h12.6v2.9H53v12.9h-3.1V59.8z"/>
		<path d="M73.8,56.9h6.7c3.3,0,5.5,1.4,5.5,4.9c0,2.3-1,4.1-3.6,4.5l3.8,6.4h-3.4l-3.7-6.2h-2.3v6.2h-3.1L73.8,56.9L73.8,56.9z
			 M79.8,64.5c2,0,3.3-0.7,3.3-2.5c0-1.5-0.8-2.5-2.8-2.5h-3.4v5H79.8z"/>
		<path d="M91.7,67.8L87,56.9h3.2c0.7,1.7,1.3,3.4,1.9,4.7c0.4,1,0.8,2.1,1.2,3.1h0.1c0.4-1.1,0.8-2.1,1.2-3.1
			c0.6-1.4,1.2-3,1.9-4.7h3.2l-4.8,10.9v4.9h-3.1C91.7,72.7,91.7,67.8,91.7,67.8z"/>
	</g>
	<g>
		<path d="M3.5,76.8h7c3.1,0,5.2,1.4,5.2,4.9c0,3.8-2.7,5.1-6.3,5.1H6.5v5.9H3.4L3.5,76.8L3.5,76.8z M9.5,84.3
			c1.9,0,3.2-0.7,3.2-2.5c0-1.5-0.8-2.5-2.7-2.5H6.6v5H9.5z"/>
		<path d="M18.1,76.8h6.8c3.3,0,5.5,1.4,5.5,4.9c0,2.3-1,4.1-3.6,4.5l3.8,6.4h-3.4l-3.7-6.2h-2.3v6.3h-3.1V76.8z M24.1,84.3
			c2,0,3.3-0.7,3.3-2.5c0-1.5-0.8-2.5-2.8-2.5h-3.4v5H24.1z"/>
		<path d="M45.7,92.4v-2.8c0.4,0.1,1.3,0.7,2.5,0.7c2,0,2-1.6,2-4.6v-8.9h3.1v10.7c0,2.5-0.1,5.5-4.6,5.5
			C47.5,93.1,46.4,92.8,45.7,92.4z"/>
		<path d="M56.7,76.8h10.5v2.6h-7.4v3.9h7v2.5h-7v4.2h7.5v2.7H56.7V76.8z"/>
		<path d="M69.2,84.6c0-5,2.1-8.3,7.2-8.3c1.8,0,3.7,0.4,5.3,1.5v2.9c-1.6-1-3.2-1.6-4.9-1.6c-2.6,0-4.4,1.5-4.4,5.5
			c0,3.4,1.3,5.6,4.6,5.6c1.5,0,3.2-0.4,4.9-1.6v2.8c-1.2,0.9-3.1,1.6-5.5,1.6C72.2,93.1,69.2,90.8,69.2,84.6z"/>
		<path d="M87.9,79.6h-4.8v-2.9h12.6v2.9h-4.8v13h-3V79.6z"/>
	</g>
	<g>
		<g>
			<path d="M32.1,83.4c0-4,1.8-7.1,6.3-7.1c3.8,0,6.3,2.2,6.3,7.1c0,4-1.8,7.1-6.3,7.1C34.6,90.6,32.1,88.3,32.1,83.4z M38.4,88.6
				c2.3,0,3.8-1.7,3.8-5.2c0-2.9-1-5.2-3.8-5.2c-2.3,0-3.9,1.7-3.9,5.2C34.5,86.2,35.6,88.6,38.4,88.6z"/>
		</g>
		<polygon points="34.5,89.6 37.5,93.1 38.7,93.1 38.7,90.2 		"/>
		<path class="st0" d="M37.2,86.6v3.4c0,0-1-1.2-1.6-2.2c-0.5-0.9-0.9-2.2-0.9-2.2L37.2,86.6z"/>
		<path d="M37.5,93.1c-0.9-0.5-2.8-2.1-3.6-3.3c-1-1.4-1.3-2.5-1.6-3.7"/>
		<path d="M37.5,93.1c-0.9-0.5-2.8-2.1-3.6-3.3c-1-1.4-1.3-2.5-1.6-3.7"/>
		<rect x="36.4" y="80.1" width="3.9" height="0.6"/>
		<rect x="35.2" y="81.6" width="1.7" height="0.6"/>
		<rect x="37.3" y="81.6" width="2.2" height="0.6"/>
		<rect x="39.8" y="81.6" width="1.7" height="0.6"/>
		<rect x="37.9" y="87.1" width="1.4" height="0.6"/>
		<rect x="35.8" y="84.4" width="1.7" height="0.6"/>
		<rect x="38" y="84.4" width="3" height="0.6"/>
		<rect x="38.8" y="83.1" width="2.8" height="0.6"/>
		<rect x="36.5" y="85.8" width="3.7" height="0.6"/>
		<rect x="35.2" y="83.1" width="3.2" height="0.6"/>
	</g>
	<g>
		<g>
			<path d="M18.5,8.9c0-4,1.8-7.1,6.3-7.1c3.8,0,6.3,2.2,6.3,7.1c0,4-1.8,7.1-6.3,7.1C21,16,18.5,13.8,18.5,8.9z M24.8,14.1
				c2.3,0,3.8-1.7,3.8-5.2c0-2.9-1-5.2-3.8-5.2c-2.3,0-3.9,1.7-3.9,5.2C20.9,11.8,22,14.1,24.8,14.1z"/>
		</g>
		<polygon points="20.9,15.1 23.9,18.5 25,18.5 25,15.7 		"/>
		<path class="st0" d="M23.6,12.1v3.5c0,0-1-1.2-1.6-2.2c-0.5-0.9-0.9-2.2-0.9-2.2L23.6,12.1z"/>
		<path d="M23.9,18.5c-0.9-0.5-2.8-2.1-3.6-3.3c-1-1.4-1.3-2.5-1.6-3.6"/>
		<path d="M23.9,18.5c-0.9-0.5-2.8-2.1-3.6-3.3c-1-1.4-1.3-2.5-1.6-3.6"/>
		<rect x="22.8" y="5.6" width="3.9" height="0.6"/>
		<rect x="21.6" y="7.1" width="1.7" height="0.6"/>
		<rect x="23.6" y="7.1" width="2.2" height="0.6"/>
		<rect x="26.1" y="7.1" width="1.7" height="0.6"/>
		<rect x="24.3" y="12.6" width="1.4" height="0.6"/>
		<rect x="22.2" y="9.9" width="1.7" height="0.6"/>
		<rect x="24.4" y="9.9" width="3" height="0.6"/>
		<rect x="25.1" y="8.6" width="2.8" height="0.6"/>
		<rect x="22.9" y="11.3" width="3.7" height="0.6"/>
		<rect x="21.6" y="8.6" width="3.1" height="0.6"/>
	</g>
	<g>
		<g>
			<path d="M65.2,70.8c-4.5,0-6.3-3.1-6.3-7.1c0-4.9,2.5-7.1,6.3-7.1c4.6,0,6.3,3.1,6.3,7.1C71.5,68.6,69,70.8,65.2,70.8z
				 M69.1,63.7c0-3.5-1.5-5.2-3.9-5.2c-2.8,0-3.8,2.3-3.8,5.2c0,3.5,1.5,5.2,3.8,5.2C68,68.9,69.1,66.5,69.1,63.7z"/>
		</g>
		<polygon points="69.1,69.8 66.1,73.3 64.9,73.3 64.9,70.5 		"/>
		<path class="st0" d="M66.4,66.9v3.4c0,0,1-1.2,1.6-2.2c0.5-0.9,0.9-2.2,0.9-2.2L66.4,66.9z"/>
		<path d="M66.1,73.3c0.9-0.5,2.8-2.1,3.6-3.3c1-1.4,1.3-2.5,1.6-3.7"/>
		<path d="M66.1,73.3c0.9-0.5,2.8-2.1,3.6-3.3c1-1.4,1.3-2.5,1.6-3.7"/>
		<rect x="63.3" y="60.4" width="3.9" height="0.6"/>
		<rect x="66.7" y="61.9" width="1.7" height="0.6"/>
		<rect x="64.1" y="61.9" width="2.2" height="0.6"/>
		<rect x="62.1" y="61.9" width="1.7" height="0.6"/>
		<rect x="64.3" y="67.4" width="1.4" height="0.6"/>
		<rect x="66" y="64.7" width="1.7" height="0.6"/>
		<rect x="62.7" y="64.7" width="2.9" height="0.6"/>
		<rect x="62" y="63.4" width="2.8" height="0.6"/>
		<rect x="63.4" y="66" width="3.7" height="0.6"/>
		<rect x="65.2" y="63.4" width="3.2" height="0.6"/>
	</g>
	<g>
		<g>
			<path d="M34.2,52.3c-4.5,0-6.3-3.1-6.3-7.1c0-4.9,2.5-7.1,6.3-7.1c4.5,0,6.3,3.1,6.3,7.1C40.5,50.1,38,52.3,34.2,52.3z M38,45.3
				c0-3.5-1.5-5.2-3.9-5.2c-2.8,0-3.8,2.3-3.8,5.2c0,3.5,1.5,5.2,3.8,5.2C37,50.4,38,48.1,38,45.3z"/>
		</g>
		<polygon points="38,51.4 35.1,54.8 34,54.8 34,52.1 		"/>
		<path class="st0" d="M35.3,48.4v3.5c0,0,1-1.2,1.6-2.2c0.5-0.9,0.9-2.2,0.9-2.2L35.3,48.4z"/>
		<path d="M35.1,54.8c0.9-0.5,2.8-2.1,3.6-3.3c1-1.4,1.3-2.5,1.6-3.7"/>
		<path d="M35.1,54.8c0.9-0.5,2.8-2.1,3.6-3.3c1-1.4,1.3-2.5,1.6-3.7"/>
		<rect x="32.3" y="42" width="3.9" height="0.6"/>
		<rect x="35.7" y="43.5" width="1.7" height="0.6"/>
		<rect x="33.1" y="43.5" width="2.2" height="0.6"/>
		<rect x="31.1" y="43.5" width="1.7" height="0.6"/>
		<rect x="33.3" y="48.9" width="1.4" height="0.6"/>
		<rect x="35" y="46.2" width="1.7" height="0.6"/>
		<rect x="31.7" y="46.2" width="2.9" height="0.6"/>
		<rect x="31" y="44.9" width="2.8" height="0.6"/>
		<rect x="32.4" y="47.6" width="3.7" height="0.6"/>
		<rect x="34.2" y="44.9" width="3.2" height="0.6"/>
	</g>
	<path d="M124.1,26.3"/>
</g>
</svg>
