<?xml version="1.0" encoding="utf-8"?>
<!-- Generator: Adobe Illustrator 27.4.1, SVG Export Plug-In . SVG Version: 6.00 Build 0)  -->
<svg version="1.1" id="Layer_1" xmlns="http://www.w3.org/2000/svg" xmlns:xlink="http://www.w3.org/1999/xlink" x="0px" y="0px"
	 viewBox="0 0 115.2 94.9" style="enable-background:new 0 0 115.2 94.9;" xml:space="preserve">
<style type="text/css">
	.st0{fill:#FFFFFF;}
</style>
<path class="st0" d="M14,10.9H7.3v6.4H4.2V1.5h3.1v6.6H14V1.5h3.1v15.8H14C14,17.3,14,10.9,14,10.9z"/>
<path class="st0" d="M34.9,11.4V1.5H38v9.7c0,2.5,1,4,3.3,4c2,0,3.3-1.1,3.3-4V1.5h3.1v9.9c0,4.1-2.1,6.4-6.4,6.4
	C37.5,17.7,34.9,16,34.9,11.4z"/>
<path class="st0" d="M50.3,16.2v-2.8c2.2,1.2,3.8,1.7,5.4,1.7c2.2,0,3-0.9,3-2.1c0-1.1-0.9-1.7-2.5-2.3c-1.2-0.5-2.1-0.8-2.9-1.2
	c-1.8-1-2.9-2.2-2.9-4.2c0-2.4,1.9-4.2,5.5-4.2c1.5,0,3,0.3,4.6,1.3v2.8c-1.6-1-2.7-1.6-4.4-1.6c-1.8,0-2.6,0.7-2.6,1.7
	c0,1.1,0.9,1.8,2.3,2.4C56.5,8,57.2,8.3,58,8.6c2.3,0.9,3.6,1.9,3.6,4.2c0,2.8-1.7,4.8-6,4.8C53.8,17.7,51.9,17.3,50.3,16.2z"/>
<path class="st0" d="M64.2,1.5h3.1v15.8h-3.1V1.5z"/>
<path class="st0" d="M70.8,1.5h3.4c2,3.2,4.5,7.3,7,11.7h0.1c-0.1-3-0.2-6.4-0.2-11.7h3.1v15.8h-3.4c-1.5-2.4-4.2-7-7-11.7h-0.1
	c0.1,2.7,0.2,6.1,0.2,11.7h-3.1V1.5z"/>
<path class="st0" d="M86.9,9.4c0-5.2,2.6-8.3,7.4-8.3c2.1,0,4.1,0.6,5.2,1.5v2.9c-1.4-0.9-2.9-1.6-4.9-1.6c-2.7,0-4.6,1.4-4.6,5.5
	c0,3.7,1.6,5.9,4.8,5.9c1.1,0,2-0.3,2.4-0.9V9.5h3v6.2c-1,1.1-3.1,2.1-5.8,2.1C89.9,17.7,86.9,15,86.9,9.4z"/>
<path class="st0" d="M21.4,35.1v-2.8c0.4,0.1,1.3,0.7,2.5,0.7c2,0,2-1.6,2-4.6v-9H29v10.7c0,2.5-0.1,5.5-4.6,5.5
	C23.2,35.6,22.1,35.3,21.4,35.1z"/>
<path class="st0" d="M32.3,29.3v-9.9h3.1v9.7c0,2.5,1,4,3.3,4c2,0,3.3-1.1,3.3-4v-9.7h3.1v9.9c0,4.2-2.1,6.4-6.4,6.4
	C34.8,35.6,32.3,33.9,32.3,29.3z"/>
<path class="st0" d="M47.6,34.1v-2.8c2.2,1.2,3.8,1.7,5.4,1.7c2.2,0,3-0.9,3-2.1c0-1.1-0.9-1.7-2.5-2.3c-1.2-0.5-2.1-0.8-2.9-1.2
	c-1.8-1-2.9-2.2-2.9-4.1c0-2.4,1.9-4.2,5.5-4.2c1.5,0,3,0.3,4.6,1.2v2.8c-1.6-1-2.7-1.6-4.4-1.6c-1.8,0-2.6,0.7-2.6,1.7
	c0,1.1,0.9,1.8,2.3,2.4c0.7,0.3,1.4,0.5,2.2,0.9c2.3,0.9,3.6,1.9,3.6,4.2c0,2.8-1.7,4.9-6,4.9C51.2,35.6,49.2,35.2,47.6,34.1z"/>
<path class="st0" d="M64.6,22.3h-4.8v-2.9h12.6v2.9h-4.7v12.9h-3.1C64.6,35.3,64.6,22.3,64.6,22.3z"/>
<path class="st0" d="M74.6,19.4h3.1v15.8h-3.1V19.4z"/>
<path class="st0" d="M80.5,27.3c0-5,2.1-8.3,7.2-8.3c1.8,0,3.7,0.4,5.3,1.5v2.9c-1.6-1-3.2-1.6-4.9-1.6c-2.6,0-4.4,1.5-4.4,5.5
	c0,3.4,1.3,5.6,4.6,5.6c1.5,0,3.2-0.4,4.9-1.6v2.8c-1.2,0.9-3.1,1.6-5.5,1.6C83.5,35.6,80.5,33.3,80.5,27.3z"/>
<path class="st0" d="M95.8,19.4h10.5V22h-7.4v3.9h7v2.5h-7v4.2h7.5v2.6H95.8V19.4z"/>
<path class="st0" d="M45,37.8h6.7c3.3,0,5.5,1.4,5.5,4.9c0,2.3-1,4.1-3.6,4.5l3.8,6.4H54l-3.7-6.2H48v6.2h-3.1L45,37.8L45,37.8z
	 M50.9,45.4c2,0,3.3-0.7,3.3-2.5c0-1.5-0.8-2.5-2.8-2.5H48v5H50.9z"/>
<path class="st0" d="M63.8,37.8h4.3l5.4,15.8h-3.1l-1.2-3.9h-6.4l-1.2,3.9h-3.1L63.8,37.8z M68.4,47.2l-0.9-2.7
	c-0.5-1.4-0.9-2.7-1.4-4.1h-0.2c-0.5,1.6-0.9,2.7-1.4,4.3c-0.3,0.8-0.5,1.6-0.8,2.5H68.4L68.4,47.2z"/>
<path class="st0" d="M75.5,37.8h3.1v12.9h7.3v2.9H75.5V37.8z"/>
<path class="st0" d="M21.7,65.5H15v6.4h-3.1V56.1H15v6.6h6.6v-6.6h3.1v15.8h-3.1L21.7,65.5L21.7,65.5z"/>
<path class="st0" d="M28.3,56.1h3.1v15.8h-3.1V56.1z"/>
<path class="st0" d="M34.2,70.8V68c2.2,1.2,3.8,1.7,5.4,1.7c2.2,0,3-0.9,3-2.1c0-1.1-0.9-1.7-2.5-2.3c-1.2-0.5-2.1-0.8-2.9-1.2
	c-1.8-1-2.9-2.2-2.9-4.2c0-2.4,1.9-4.2,5.5-4.2c1.5,0,3,0.3,4.6,1.2v2.8c-1.6-1-2.7-1.6-4.4-1.6c-1.8,0-2.6,0.7-2.6,1.7
	c0,1.1,0.9,1.8,2.3,2.4c0.7,0.3,1.4,0.6,2.2,0.9c2.3,0.9,3.6,1.9,3.6,4.2c0,2.8-1.7,4.8-6,4.8C37.7,72.3,35.8,71.9,34.2,70.8z"/>
<path class="st0" d="M51.1,59h-4.8v-2.9h12.6V59h-4.7v12.9h-3.1V59z"/>
<path class="st0" d="M75,56.1h6.7c3.3,0,5.5,1.4,5.5,4.9c0,2.3-1,4.1-3.6,4.5l3.8,6.4H84l-3.7-6.2H78v6.2h-3.1L75,56.1L75,56.1z
	 M81,63.7c2,0,3.3-0.7,3.3-2.5c0-1.5-0.8-2.5-2.8-2.5h-3.4v5H81z"/>
<path class="st0" d="M92.9,67l-4.7-10.9h3.2c0.7,1.7,1.3,3.4,1.9,4.7c0.4,1,0.8,2.1,1.2,3.1h0.1c0.4-1.1,0.8-2.1,1.2-3.1
	c0.6-1.4,1.2-3,1.9-4.7h3.2L96.1,67v4.9H93C92.9,71.9,92.9,67,92.9,67z"/>
<path class="st0" d="M4.7,76h7c3.1,0,5.2,1.4,5.2,4.9c0,3.8-2.7,5.1-6.3,5.1H7.7v5.9H4.6L4.7,76L4.7,76z M10.7,83.5
	c1.9,0,3.2-0.7,3.2-2.5c0-1.5-0.8-2.5-2.7-2.5H7.8v5H10.7z"/>
<path class="st0" d="M19.3,76h6.8c3.3,0,5.5,1.4,5.5,4.9c0,2.3-1,4.1-3.6,4.5l3.8,6.4h-3.4l-3.7-6.2h-2.3v6.3h-3.1V76z M25.3,83.5
	c2,0,3.3-0.7,3.3-2.5c0-1.5-0.8-2.5-2.8-2.5h-3.4v5H25.3z"/>
<path class="st0" d="M46.9,91.6v-2.8c0.4,0.1,1.3,0.7,2.5,0.7c2,0,2-1.6,2-4.6V76h3.1v10.7c0,2.5-0.1,5.5-4.6,5.5
	C48.7,92.3,47.6,92,46.9,91.6z"/>
<path class="st0" d="M57.9,76h10.5v2.6H61v3.9h7V85h-7v4.2h7.5v2.7H57.9V76z"/>
<path class="st0" d="M70.4,83.8c0-5,2.1-8.3,7.2-8.3c1.8,0,3.7,0.4,5.3,1.5v2.9c-1.6-1-3.2-1.6-4.9-1.6c-2.6,0-4.4,1.5-4.4,5.5
	c0,3.4,1.3,5.6,4.6,5.6c1.5,0,3.2-0.4,4.9-1.6v2.8c-1.2,0.9-3.1,1.6-5.5,1.6C73.4,92.3,70.4,90,70.4,83.8z"/>
<path class="st0" d="M89.1,78.8h-4.8v-2.9h12.6v2.9h-4.8v13h-3C89.1,91.8,89.1,78.8,89.1,78.8z"/>
<g>
	<g>
		<path class="st0" d="M26,1c-4.5,0-6.3,3.1-6.3,7.1c0,0.9,0.1,1.6,0.2,2.3c0,0.2,0.1,0.4,0.2,0.6c0.5,1.6,2.5,3.4,2.5,3.4
			c0.1,0,0.2,0.1,0.2,0.1c0.9,0.5,2,0.7,3.2,0.7c4.5,0,6.3-3.1,6.3-7.1C32.3,3.2,29.8,1,26,1z M26,13.3c-0.4,0-0.8-0.1-1.2-0.2v1.7
			c0,0-1-1.2-1.6-2.2c-0.3-0.6-0.6-1.4-0.7-1.9c-0.1-0.3-0.1-0.5-0.1-0.5l0,0c-0.1-0.6-0.2-1.3-0.2-2c0-3.5,1.6-5.2,3.9-5.2
			c2.8,0,3.8,2.3,3.8,5.2C29.8,11.6,28.3,13.3,26,13.3z"/>
	</g>
	<path class="st0" d="M25.1,17.7c-0.9-0.5-2.8-2.1-3.6-3.3c-1.1-1.6-1.5-3.6-1.7-4.7l4.5,5.2c0.1,0,0.6,0.2,0.6,0.3L25.1,17.7z"/>
	<path class="st0" d="M22.8,14.5c-0.1,0-0.2-0.1-0.2-0.1c0,0-2.1-1.8-2.5-3.4c-0.1-0.2-0.1-0.4-0.2-0.6L22.8,14.5z"/>
	<g>
		<polygon class="st0" points="24.8,15.1 25.1,17.7 26.2,17.7 26.2,15.2 		"/>
	</g>
	<rect x="24" y="4.9" class="st0" width="3.9" height="0.5"/>
	<rect x="22.8" y="6.4" class="st0" width="1.7" height="0.5"/>
	<rect x="24.8" y="6.4" class="st0" width="2.2" height="0.5"/>
	<rect x="27.3" y="6.4" class="st0" width="1.7" height="0.5"/>
	<rect x="25.5" y="11.9" class="st0" width="1.4" height="0.5"/>
	<rect x="23.4" y="9.2" class="st0" width="1.7" height="0.5"/>
	<rect x="25.6" y="9.2" class="st0" width="3" height="0.5"/>
	<rect x="26.3" y="7.9" class="st0" width="2.8" height="0.5"/>
	<rect x="24.1" y="10.6" class="st0" width="3.7" height="0.5"/>
	<rect x="22.8" y="7.9" class="st0" width="3.1" height="0.5"/>
</g>
<path class="st0" d="M125.3,25.5L125.3,25.5z"/>
<g>
	<g>
		<path class="st0" d="M39.8,75.7c-4.5,0-6.3,3.1-6.3,7.1c0,0.9,0.1,1.6,0.2,2.3c0,0.2,0.1,0.4,0.2,0.6c0.5,1.6,2.5,3.4,2.5,3.4
			c0.1,0,0.2,0.1,0.2,0.1c0.9,0.5,2,0.7,3.2,0.7c4.5,0,6.3-3.1,6.3-7.1C46.1,77.9,43.6,75.7,39.8,75.7z M39.8,88
			c-0.4,0-0.8-0.1-1.2-0.2v1.7c0,0-1-1.2-1.6-2.2c-0.3-0.6-0.6-1.4-0.7-1.9c-0.1-0.3-0.1-0.5-0.1-0.5l0,0c-0.1-0.6-0.2-1.3-0.2-2
			c0-3.5,1.6-5.2,3.9-5.2c2.8,0,3.8,2.3,3.8,5.2C43.6,86.3,42.1,88,39.8,88z"/>
	</g>
	<path class="st0" d="M38.9,92.4c-0.9-0.5-2.8-2.1-3.6-3.3c-1.1-1.6-1.5-3.6-1.7-4.7l4.5,5.2c0.1,0,0.6,0.2,0.6,0.3L38.9,92.4z"/>
	<path class="st0" d="M36.7,89.2c-0.1,0-0.2-0.1-0.2-0.1c0,0-2.1-1.8-2.5-3.4c-0.1-0.2-0.1-0.4-0.2-0.6L36.7,89.2z"/>
	<g>
		<polygon class="st0" points="38.7,89.8 38.9,92.4 40,92.4 40,89.9 		"/>
	</g>
	<rect x="37.8" y="79.5" class="st0" width="3.9" height="0.5"/>
	<rect x="36.6" y="81" class="st0" width="1.7" height="0.5"/>
	<rect x="38.6" y="81" class="st0" width="2.2" height="0.5"/>
	<rect x="41.1" y="81" class="st0" width="1.7" height="0.5"/>
	<rect x="39.3" y="86.5" class="st0" width="1.4" height="0.5"/>
	<rect x="37.2" y="83.8" class="st0" width="1.7" height="0.5"/>
	<rect x="39.4" y="83.8" class="st0" width="3" height="0.5"/>
	<rect x="40.1" y="82.5" class="st0" width="2.8" height="0.5"/>
	<rect x="37.9" y="85.2" class="st0" width="3.7" height="0.5"/>
	<rect x="36.6" y="82.5" class="st0" width="3.1" height="0.5"/>
</g>
<g>
	<g>
		<path class="st0" d="M29.3,44.4c0,4,1.8,7.1,6.3,7.1c1.2,0,2.3-0.2,3.2-0.7c0.1,0,0.2-0.1,0.2-0.1c0,0,2.1-1.8,2.5-3.4
			c0.1-0.2,0.1-0.4,0.2-0.6c0.1-0.7,0.2-1.5,0.2-2.3c0-4-1.8-7.1-6.3-7.1C31.8,37.3,29.3,39.5,29.3,44.4z M31.8,44.4
			c0-2.9,1-5.2,3.8-5.2c2.3,0,3.9,1.7,3.9,5.2c0,0.7-0.1,1.4-0.2,2l0,0c0,0.1-0.1,0.2-0.1,0.5c-0.1,0.5-0.4,1.4-0.7,1.9
			c-0.6,1-1.6,2.2-1.6,2.2v-1.7c-0.4,0.1-0.8,0.2-1.2,0.2C33.3,49.6,31.8,47.9,31.8,44.4z"/>
	</g>
	<path class="st0" d="M36.5,54c0.9-0.5,2.8-2.1,3.6-3.3c1.1-1.6,1.5-3.6,1.7-4.7l-4.5,5.2c-0.1,0-0.6,0.2-0.6,0.3L36.5,54z"/>
	<path class="st0" d="M38.8,50.9c0.1,0,0.2-0.1,0.2-0.1c0,0,2.1-1.8,2.5-3.4c0.1-0.2,0.1-0.4,0.2-0.6L38.8,50.9z"/>
	<g>
		<polygon class="st0" points="35.4,51.5 35.4,54.1 36.5,54.1 36.7,51.5 		"/>
	</g>
	<rect x="33.7" y="41.2" class="st0" width="3.9" height="0.5"/>
	<rect x="37.1" y="42.7" class="st0" width="1.7" height="0.5"/>
	<rect x="34.6" y="42.7" class="st0" width="2.2" height="0.5"/>
	<rect x="32.6" y="42.7" class="st0" width="1.7" height="0.5"/>
	<rect x="34.7" y="48.2" class="st0" width="1.4" height="0.5"/>
	<rect x="36.5" y="45.5" class="st0" width="1.7" height="0.5"/>
	<rect x="33" y="45.5" class="st0" width="3" height="0.5"/>
	<rect x="32.5" y="44.2" class="st0" width="2.8" height="0.5"/>
	<rect x="33.8" y="46.9" class="st0" width="3.7" height="0.5"/>
	<rect x="35.7" y="44.2" class="st0" width="3.1" height="0.5"/>
</g>
<g>
	<g>
		<path class="st0" d="M59.8,62.8c0,4,1.8,7.1,6.3,7.1c1.2,0,2.3-0.2,3.2-0.7c0.1,0,0.2-0.1,0.2-0.1c0,0,2.1-1.8,2.5-3.4
			c0.1-0.2,0.1-0.4,0.2-0.6c0.1-0.7,0.2-1.5,0.2-2.3c0-4-1.8-7.1-6.3-7.1C62.3,55.7,59.8,57.9,59.8,62.8z M62.3,62.8
			c0-2.9,1-5.2,3.8-5.2c2.3,0,3.9,1.7,3.9,5.2c0,0.7-0.1,1.4-0.2,2l0,0c0,0.1-0.1,0.2-0.1,0.5c-0.1,0.5-0.4,1.4-0.7,1.9
			c-0.6,1-1.6,2.2-1.6,2.2v-1.7c-0.4,0.1-0.8,0.2-1.2,0.2C63.8,68,62.3,66.3,62.3,62.8z"/>
	</g>
	<path class="st0" d="M67,72.4c0.9-0.5,2.8-2.1,3.6-3.3c1.1-1.6,1.5-3.6,1.7-4.7l-4.5,5.2c-0.1,0-0.6,0.2-0.6,0.3L67,72.4z"/>
	<path class="st0" d="M69.2,69.2c0.1,0,0.2-0.1,0.2-0.1c0,0,2.1-1.8,2.5-3.4c0.1-0.2,0.1-0.4,0.2-0.6L69.2,69.2z"/>
	<g>
		<polygon class="st0" points="65.9,69.9 65.9,72.4 67,72.4 67.2,69.8 		"/>
	</g>
	<rect x="64.2" y="59.5" class="st0" width="3.9" height="0.5"/>
	<rect x="67.6" y="61" class="st0" width="1.7" height="0.5"/>
	<rect x="65.1" y="61" class="st0" width="2.2" height="0.5"/>
	<rect x="63.1" y="61" class="st0" width="1.7" height="0.5"/>
	<rect x="65.2" y="66.5" class="st0" width="1.4" height="0.5"/>
	<rect x="67" y="63.8" class="st0" width="1.7" height="0.5"/>
	<rect x="63.5" y="63.8" class="st0" width="3" height="0.5"/>
	<rect x="63" y="62.5" class="st0" width="2.8" height="0.5"/>
	<rect x="64.3" y="65.2" class="st0" width="3.7" height="0.5"/>
	<rect x="66.2" y="62.5" class="st0" width="3.1" height="0.5"/>
</g>
</svg>
